<svg width="1100" height="250" viewBox="0 0 1100 250" fill="none" xmlns="http://www.w3.org/2000/svg" role="img" aria-labelledby="title desc">
  <title id="title">Developer sticker pack</title>
  <desc id="desc">A set of developer themed stickers for API, Docker, queues, vector search, database migrations, and deployment.</desc>
  <defs>
    <filter id="stickerShadow" x="-20%" y="-20%" width="140%" height="140%">
      <feDropShadow dx="0" dy="10" stdDeviation="11" flood-color="#0F172A" flood-opacity="0.18"/>
    </filter>
  </defs>

  <rect width="1100" height="250" rx="28" fill="#F8FAFC"/>

  <g filter="url(#stickerShadow)" transform="rotate(-6 118 121)">
    <rect x="34" y="55" width="170" height="132" rx="26" fill="#0F172A" stroke="#E2E8F0" stroke-width="8"/>
    <text x="58" y="96" fill="#67E8F9" font-family="ui-monospace, SFMono-Regular, Menlo, monospace" font-size="18" font-weight="700">&gt; api</text>
    <text x="58" y="130" fill="#A7F3D0" font-family="ui-monospace, SFMono-Regular, Menlo, monospace" font-size="15">/health</text>
    <text x="58" y="159" fill="#FDE68A" font-family="ui-monospace, SFMono-Regular, Menlo, monospace" font-size="15">200 OK</text>
  </g>

  <g filter="url(#stickerShadow)" transform="rotate(4 294 124)">
    <rect x="228" y="52" width="178" height="136" rx="28" fill="#DBEAFE" stroke="#FFFFFF" stroke-width="8"/>
    <rect x="263" y="111" width="88" height="35" rx="8" fill="#2563EB"/>
    <rect x="272" y="84" width="22" height="20" rx="4" fill="#60A5FA"/>
    <rect x="299" y="84" width="22" height="20" rx="4" fill="#60A5FA"/>
    <rect x="326" y="84" width="22" height="20" rx="4" fill="#60A5FA"/>
    <path d="M354 112 C370 112 381 121 383 136 C375 147 364 151 350 151 H264 C251 151 241 145 235 134 C243 134 252 132 260 126" fill="#1D4ED8"/>
    <text x="260" y="172" fill="#1E3A8A" font-family="Inter, Arial, sans-serif" font-size="18" font-weight="800">compose up</text>
  </g>

  <g filter="url(#stickerShadow)" transform="rotate(-2 488 124)">
    <rect x="433" y="47" width="186" height="142" rx="28" fill="#ECFDF5" stroke="#FFFFFF" stroke-width="8"/>
    <circle cx="476" cy="91" r="18" fill="#22C55E"/>
    <circle cx="528" cy="91" r="18" fill="#14B8A6"/>
    <circle cx="580" cy="91" r="18" fill="#0EA5E9"/>
    <path d="M476 109 C486 132 502 143 528 143 C554 143 570 132 580 109" stroke="#0F172A" stroke-width="7" stroke-linecap="round"/>
    <text x="470" y="171" fill="#064E3B" font-family="Inter, Arial, sans-serif" font-size="18" font-weight="800">queue crew</text>
  </g>

  <g filter="url(#stickerShadow)" transform="rotate(6 686 125)">
    <rect x="643" y="48" width="172" height="140" rx="30" fill="#FEF3C7" stroke="#FFFFFF" stroke-width="8"/>
    <path d="M691 74 H768 V111 H691 Z" fill="#F59E0B"/>
    <path d="M678 111 H781 V151 H678 Z" fill="#FBBF24"/>
    <path d="M703 90 H756" stroke="#78350F" stroke-width="7" stroke-linecap="round"/>
    <path d="M697 131 H761" stroke="#78350F" stroke-width="7" stroke-linecap="round"/>
    <text x="676" y="174" fill="#78350F" font-family="Inter, Arial, sans-serif" font-size="18" font-weight="800">alembic run</text>
  </g>

  <g filter="url(#stickerShadow)" transform="rotate(-5 878 124)">
    <rect x="836" y="48" width="179" height="142" rx="30" fill="#F5F3FF" stroke="#FFFFFF" stroke-width="8"/>
    <circle cx="884" cy="93" r="12" fill="#7C3AED"/>
    <circle cx="937" cy="78" r="12" fill="#06B6D4"/>
    <circle cx="959" cy="131" r="12" fill="#22C55E"/>
    <circle cx="889" cy="145" r="12" fill="#F59E0B"/>
    <path d="M895 90 L925 81 M943 90 L954 119 M947 133 L901 143 M891 133 L884 105" stroke="#334155" stroke-width="5" stroke-linecap="round"/>
    <text x="865" y="174" fill="#4C1D95" font-family="Inter, Arial, sans-serif" font-size="18" font-weight="800">vector match</text>
  </g>

  <g filter="url(#stickerShadow)" transform="rotate(3 1020 126)">
    <rect x="966" y="54" width="106" height="134" rx="28" fill="#E0F2FE" stroke="#FFFFFF" stroke-width="8"/>
    <path d="M1000 84 H1040 L1033 141 H1007 Z" fill="#0284C7"/>
    <path d="M997 84 L1010 67 H1032 L1043 84" fill="#38BDF8"/>
    <path d="M1014 104 H1030 M1012 122 H1032" stroke="#E0F2FE" stroke-width="5" stroke-linecap="round"/>
    <text x="996" y="171" fill="#0C4A6E" font-family="Inter, Arial, sans-serif" font-size="17" font-weight="800">ship</text>
  </g>
</svg>
